<svg width="69" height="19" viewBox="0 0 69 19" fill="none" xmlns="http://www.w3.org/2000/svg">
<g clip-path="url(#clip0_0_38)">
<path d="M15.8532 13.1094C15.294 13.1094 14.7551 13.0446 14.2365 12.9149C13.7259 12.7852 13.2802 12.5908 12.8993 12.3314C12.7454 12.2261 12.6522 12.1005 12.6197 11.9546C12.5873 11.8006 12.5995 11.6629 12.6562 11.5413C12.721 11.4116 12.8142 11.3225 12.9358 11.2739C13.0655 11.2252 13.2113 11.2536 13.3734 11.359C13.7381 11.594 14.123 11.7682 14.5282 11.8817C14.9334 11.987 15.3751 12.0397 15.8532 12.0397C16.542 12.0397 17.0485 11.9181 17.3727 11.675C17.7049 11.4238 17.8711 11.0996 17.8711 10.7025C17.8711 10.3784 17.7536 10.1231 17.5185 9.93673C17.2835 9.74224 16.8905 9.58827 16.3394 9.47481L15.0388 9.20738C14.2689 9.04531 13.6935 8.77788 13.3126 8.4051C12.9399 8.03232 12.7535 7.52988 12.7535 6.89778C12.7535 6.38723 12.8872 5.93747 13.1546 5.54848C13.4301 5.15949 13.811 4.85965 14.2973 4.64895C14.7835 4.43014 15.3427 4.32074 15.9748 4.32074C16.4772 4.32074 16.9472 4.38557 17.3848 4.51523C17.8305 4.6449 18.2276 4.84344 18.5761 5.11087C18.7139 5.20812 18.7949 5.32562 18.8192 5.46339C18.8435 5.60115 18.8233 5.73082 18.7584 5.85238C18.6936 5.96583 18.5964 6.04282 18.4667 6.08334C18.337 6.12386 18.1871 6.09144 18.0169 5.98609C17.7009 5.77539 17.3767 5.62547 17.0445 5.53632C16.7122 5.43908 16.3516 5.39045 15.9626 5.39045C15.3629 5.39045 14.8848 5.52417 14.5282 5.7916C14.1797 6.05902 14.0055 6.4156 14.0055 6.86131C14.0055 7.20167 14.1149 7.47315 14.3337 7.67575C14.5525 7.87835 14.9172 8.03232 15.4277 8.13767L16.7163 8.4051C17.5266 8.57528 18.1304 8.83866 18.5275 9.19523C18.9246 9.54369 19.1231 10.0178 19.1231 10.6175C19.1231 11.1199 18.9894 11.5575 18.722 11.9303C18.4545 12.3031 18.0777 12.5948 17.5915 12.8055C17.1052 13.0081 16.5258 13.1094 15.8532 13.1094ZM21.0324 5.74297C20.7893 5.74297 20.5989 5.68219 20.4611 5.56064C20.3314 5.43908 20.2666 5.2689 20.2666 5.05009C20.2666 4.58817 20.5219 4.35721 21.0324 4.35721C21.543 4.35721 21.7982 4.58817 21.7982 5.05009C21.7982 5.51201 21.543 5.74297 21.0324 5.74297ZM21.0324 13.0729C20.6272 13.0729 20.4246 12.8501 20.4246 12.4044V7.66359C20.4246 7.22598 20.6272 7.00718 21.0324 7.00718C21.4457 7.00718 21.6524 7.22598 21.6524 7.66359V12.4044C21.6524 12.8501 21.4457 13.0729 21.0324 13.0729ZM23.9883 13.0851C23.5831 13.0851 23.3805 12.8784 23.3805 12.4651V7.60281C23.3805 7.18952 23.579 6.98287 23.9761 6.98287C24.3732 6.98287 24.5718 7.18952 24.5718 7.60281V8.05258C24.7744 7.69601 25.0499 7.42453 25.3984 7.23814C25.7549 7.05175 26.152 6.95856 26.5896 6.95856C27.9916 6.95856 28.6926 7.75274 28.6926 9.3411V12.4651C28.6926 12.8784 28.49 13.0851 28.0848 13.0851C27.6715 13.0851 27.4649 12.8784 27.4649 12.4651V9.41403C27.4649 8.90349 27.3636 8.53071 27.161 8.2957C26.9665 8.06068 26.6585 7.94318 26.2371 7.94318C25.7428 7.94318 25.3457 8.1012 25.0458 8.41725C24.7541 8.7252 24.6082 9.13445 24.6082 9.64499V12.4651C24.6082 12.8784 24.4016 13.0851 23.9883 13.0851ZM36.4461 13.0851C36.0247 13.0851 35.814 12.8703 35.814 12.4408V5.4877H33.237C32.8723 5.4877 32.69 5.30942 32.69 4.95284C32.69 4.60438 32.8723 4.43014 33.237 4.43014H39.6431C40.0159 4.43014 40.2023 4.60438 40.2023 4.95284C40.2023 5.30942 40.0159 5.4877 39.6431 5.4877H37.0661V12.4408C37.0661 12.8703 36.8594 13.0851 36.4461 13.0851ZM41.9792 13.1094C41.5659 13.1094 41.1972 13.0284 40.873 12.8663C40.5489 12.7042 40.2895 12.4854 40.095 12.2099C39.9087 11.9343 39.8155 11.6223 39.8155 11.2739C39.8155 10.8363 39.9249 10.4918 40.1437 10.2406C40.3706 9.98941 40.7393 9.80707 41.2498 9.69362C41.7685 9.58016 42.4654 9.52343 43.3406 9.52343H43.7539V9.20738C43.7539 8.74546 43.6567 8.4132 43.4622 8.21061C43.2677 8.00801 42.9476 7.90671 42.5019 7.90671C42.2426 7.90671 41.9711 7.93913 41.6875 8.00396C41.4119 8.06879 41.1242 8.17819 40.8244 8.33216C40.6542 8.4132 40.5124 8.42536 40.3989 8.36863C40.2936 8.3119 40.2207 8.22276 40.1801 8.1012C40.1396 7.97964 40.1437 7.85403 40.1923 7.72437C40.2409 7.59471 40.3422 7.49746 40.4962 7.43263C40.8528 7.27055 41.2053 7.15305 41.5537 7.08011C41.9022 6.99907 42.2304 6.95856 42.5384 6.95856C43.3488 6.95856 43.9484 7.15305 44.3374 7.54203C44.7264 7.92292 44.9209 8.5226 44.9209 9.3411V12.4651C44.9209 12.8784 44.7305 13.0851 44.3496 13.0851C43.9606 13.0851 43.7661 12.8784 43.7661 12.4651V12.0154C43.6202 12.3557 43.3933 12.6232 43.0854 12.8177C42.7774 13.0122 42.4087 13.1094 41.9792 13.1094ZM42.2223 12.2342C42.6599 12.2342 43.0246 12.0802 43.3163 11.7723C43.6081 11.4643 43.7539 11.0753 43.7539 10.6053V10.2771H43.3528C42.7612 10.2771 42.2952 10.3055 41.9549 10.3622C41.6226 10.4189 41.3836 10.5162 41.2377 10.6539C41.0999 10.7836 41.031 10.9659 41.031 11.2009C41.031 11.5089 41.1364 11.7601 41.3471 11.9546C41.5578 12.141 41.8495 12.2342 42.2223 12.2342ZM49.2254 13.1094C48.6176 13.1094 48.0909 12.9838 47.6451 12.7326C47.2075 12.4732 46.8672 12.1126 46.6241 11.6507C46.3809 11.1807 46.2594 10.6296 46.2594 9.99751C46.2594 9.05746 46.5268 8.31596 47.0617 7.773C47.5965 7.23004 48.3178 6.95856 49.2254 6.95856C49.509 6.95856 49.8048 7.00313 50.1128 7.09227C50.4288 7.17331 50.7206 7.31107 50.988 7.50557C51.1177 7.58661 51.1906 7.69196 51.2068 7.82162C51.2311 7.94318 51.2108 8.06068 51.146 8.17414C51.0893 8.27949 51.0042 8.35242 50.8907 8.39294C50.7773 8.42536 50.6476 8.40105 50.5018 8.32001C50.3073 8.18224 50.1087 8.085 49.9061 8.02827C49.7035 7.96344 49.509 7.93102 49.3226 7.93102C48.7473 7.93102 48.3016 8.11336 47.9855 8.47803C47.6776 8.8346 47.5236 9.34515 47.5236 10.0097C47.5236 10.6742 47.6776 11.1969 47.9855 11.5778C48.3016 11.9505 48.7473 12.1369 49.3226 12.1369C49.509 12.1369 49.6995 12.1086 49.894 12.0518C50.0966 11.9951 50.2992 11.8979 50.5018 11.7601C50.6476 11.6791 50.7732 11.6588 50.8786 11.6993C50.992 11.7398 51.0731 11.8168 51.1217 11.9303C51.1784 12.0356 51.1946 12.1531 51.1703 12.2828C51.1541 12.4044 51.0812 12.5057 50.9515 12.5867C50.6922 12.7731 50.4086 12.9068 50.1006 12.9878C49.8008 13.0689 49.509 13.1094 49.2254 13.1094ZM54.781 13.1094C54.1732 13.1094 53.6464 12.9838 53.2007 12.7326C52.7631 12.4732 52.4228 12.1126 52.1796 11.6507C51.9365 11.1807 51.815 10.6296 51.815 9.99751C51.815 9.05746 52.0824 8.31596 52.6173 7.773C53.1521 7.23004 53.8734 6.95856 54.781 6.95856C55.0646 6.95856 55.3604 7.00313 55.6684 7.09227C55.9844 7.17331 56.2762 7.31107 56.5436 7.50557C56.6732 7.58661 56.7462 7.69196 56.7624 7.82162C56.7867 7.94318 56.7664 8.06068 56.7016 8.17414C56.6449 8.27949 56.5598 8.35242 56.4463 8.39294C56.3329 8.42536 56.2032 8.40105 56.0574 8.32001C55.8629 8.18224 55.6643 8.085 55.4617 8.02827C55.2591 7.96344 55.0646 7.93102 54.8782 7.93102C54.3029 7.93102 53.8571 8.11336 53.5411 8.47803C53.2331 8.8346 53.0792 9.34515 53.0792 10.0097C53.0792 10.6742 53.2331 11.1969 53.5411 11.5778C53.8571 11.9505 54.3029 12.1369 54.8782 12.1369C55.0646 12.1369 55.2551 12.1086 55.4496 12.0518C55.6522 11.9951 55.8548 11.8979 56.0574 11.7601C56.2032 11.6791 56.3288 11.6588 56.4342 11.6993C56.5476 11.7398 56.6287 11.8168 56.6773 11.9303C56.734 12.0356 56.7502 12.1531 56.7259 12.2828C56.7097 12.4044 56.6368 12.5057 56.5071 12.5867C56.2478 12.7731 55.9642 12.9068 55.6562 12.9878C55.3564 13.0689 55.0646 13.1094 54.781 13.1094Z" fill="#242424"/>
<path d="M9.5 1H59.5V-1H9.5V1ZM59.5 18H9.5V20H59.5V18ZM9.5 18C4.80558 18 1 14.1944 1 9.5H-1C-1 15.299 3.70101 20 9.5 20V18ZM68 9.5C68 14.1944 64.1944 18 59.5 18V20C65.299 20 70 15.299 70 9.5H68ZM59.5 1C64.1944 1 68 4.80558 68 9.5H70C70 3.70101 65.299 -1 59.5 -1V1ZM9.5 -1C3.70101 -1 -1 3.70101 -1 9.5H1C1 4.80558 4.80558 1 9.5 1V-1Z" fill="black"/>
</g>
<defs>
<clipPath id="clip0_0_38">
<rect width="69" height="19" fill="white"/>
</clipPath>
</defs>
</svg>
