<svg width="67" height="19" viewBox="0 0 67 19" fill="none" xmlns="http://www.w3.org/2000/svg">
<g clip-path="url(#clip0_0_32)">
<path d="M16.7545 13.0851C16.4142 13.0851 16.1711 12.9149 16.0252 12.5745L12.7553 5.17163C12.6499 4.92041 12.654 4.72186 12.7674 4.57599C12.889 4.42202 13.0592 4.34503 13.278 4.34503C13.4644 4.34503 13.6062 4.38555 13.7034 4.46659C13.8007 4.54763 13.8817 4.66919 13.9465 4.83127L16.7789 11.4076L19.599 4.81911C19.6719 4.66514 19.757 4.54763 19.8543 4.46659C19.9596 4.38555 20.1014 4.34503 20.2797 4.34503C20.4904 4.34503 20.6444 4.42202 20.7416 4.57599C20.847 4.72997 20.847 4.92851 20.7416 5.17163L17.4839 12.5745C17.411 12.7528 17.3178 12.8825 17.2043 12.9635C17.0908 13.0446 16.9409 13.0851 16.7545 13.0851ZM23.9222 13.1094C22.9497 13.1094 22.1839 12.8379 21.6248 12.295C21.0656 11.7439 20.786 10.9943 20.786 10.0461C20.786 9.43832 20.9076 8.90347 21.1507 8.44155C21.4019 7.97152 21.7463 7.60685 22.1839 7.34752C22.6215 7.0882 23.124 6.95854 23.6912 6.95854C24.5097 6.95854 25.154 7.22191 25.624 7.74866C26.094 8.26731 26.3291 8.98451 26.3291 9.90024C26.3291 10.1758 26.167 10.3136 25.8428 10.3136H21.9773C22.0664 11.5454 22.7188 12.1612 23.9344 12.1612C24.1775 12.1612 24.4327 12.1329 24.7002 12.0762C24.9676 12.0113 25.2269 11.8979 25.4781 11.7358C25.6483 11.6385 25.7942 11.6061 25.9158 11.6385C26.0454 11.6629 26.1386 11.7317 26.1953 11.8452C26.2521 11.9505 26.2602 12.0721 26.2197 12.2099C26.1872 12.3395 26.094 12.453 25.9401 12.5502C25.6645 12.7366 25.3404 12.8784 24.9676 12.9757C24.6029 13.0648 24.2545 13.1094 23.9222 13.1094ZM23.7399 7.8216C23.2293 7.8216 22.8241 7.97962 22.5243 8.29568C22.2244 8.61173 22.0421 9.03313 21.9773 9.55988H25.2958C25.2715 9.00882 25.1256 8.58336 24.8582 8.28352C24.5908 7.97557 24.218 7.8216 23.7399 7.8216ZM30.354 15.2975C29.9164 15.2975 29.4909 15.2529 29.0776 15.1637C28.6724 15.0746 28.3037 14.9287 27.9714 14.7261C27.8255 14.6451 27.7364 14.5438 27.704 14.4222C27.6716 14.3007 27.6837 14.1832 27.7405 14.0697C27.8053 13.9563 27.8904 13.8712 27.9957 13.8144C28.1092 13.7658 28.2307 13.778 28.3604 13.8509C28.717 14.0454 29.0533 14.1751 29.3693 14.2399C29.6935 14.3128 29.9933 14.3493 30.2689 14.3493C31.4034 14.3493 31.9707 13.782 31.9707 12.6475V11.7115C31.8005 12.0681 31.5331 12.3476 31.1684 12.5502C30.8118 12.7528 30.4107 12.8541 29.965 12.8541C29.4301 12.8541 28.9641 12.7326 28.5671 12.4895C28.17 12.2382 27.862 11.8938 27.6432 11.4562C27.4244 11.0105 27.315 10.4918 27.315 9.90024C27.315 9.31677 27.4244 8.80622 27.6432 8.36861C27.862 7.9229 28.17 7.57848 28.5671 7.33537C28.9641 7.08415 29.4301 6.95854 29.965 6.95854C30.4107 6.95854 30.8078 7.05983 31.1562 7.26243C31.5128 7.45692 31.7762 7.72435 31.9464 8.06472V7.60279C31.9464 7.1895 32.149 6.98285 32.5542 6.98285C32.9594 6.98285 33.162 7.1895 33.162 7.60279V12.5016C33.162 13.4336 32.9229 14.1305 32.4448 14.5924C31.9666 15.0624 31.2697 15.2975 30.354 15.2975ZM30.2567 11.8938C30.7754 11.8938 31.1887 11.7155 31.4966 11.359C31.8046 11.0024 31.9585 10.5162 31.9585 9.90024C31.9585 9.28435 31.8046 8.80217 31.4966 8.4537C31.1887 8.09713 30.7754 7.91885 30.2567 7.91885C29.7381 7.91885 29.3248 8.09713 29.0168 8.4537C28.7089 8.80217 28.5549 9.28435 28.5549 9.90024C28.5549 10.5162 28.7089 11.0024 29.0168 11.359C29.3248 11.7155 29.7381 11.8938 30.2567 11.8938ZM36.7814 13.1094C36.3681 13.1094 35.9993 13.0284 35.6752 12.8663C35.351 12.7042 35.0917 12.4854 34.8972 12.2099C34.7108 11.9343 34.6176 11.6223 34.6176 11.2739C34.6176 10.8363 34.727 10.4918 34.9458 10.2406C35.1727 9.98939 35.5415 9.80705 36.052 9.6936C36.5707 9.58014 37.2676 9.52341 38.1428 9.52341H38.5561V9.20736C38.5561 8.74544 38.4589 8.41318 38.2644 8.21059C38.0699 8.00799 37.7498 7.90669 37.3041 7.90669C37.0447 7.90669 36.7732 7.93911 36.4896 8.00394C36.2141 8.06877 35.9264 8.17817 35.6265 8.33214C35.4564 8.41318 35.3145 8.42534 35.2011 8.36861C35.0957 8.31188 35.0228 8.22274 34.9823 8.10118C34.9418 7.97962 34.9458 7.85401 34.9944 7.72435C35.0431 7.59469 35.1444 7.49744 35.2983 7.43261C35.6549 7.27053 36.0074 7.15303 36.3559 7.08009C36.7044 6.99905 37.0326 6.95854 37.3405 6.95854C38.1509 6.95854 38.7506 7.15303 39.1396 7.54201C39.5286 7.9229 39.7231 8.52258 39.7231 9.34108V12.4651C39.7231 12.8784 39.5326 13.0851 39.1517 13.0851C38.7628 13.0851 38.5683 12.8784 38.5683 12.4651V12.0154C38.4224 12.3557 38.1955 12.6232 37.8875 12.8177C37.5796 13.0122 37.2109 13.1094 36.7814 13.1094ZM37.0245 12.2342C37.4621 12.2342 37.8268 12.0802 38.1185 11.7723C38.4102 11.4643 38.5561 11.0753 38.5561 10.6053V10.2771H38.155C37.5634 10.2771 37.0974 10.3055 36.757 10.3622C36.4248 10.4189 36.1857 10.5162 36.0398 10.6539C35.9021 10.7836 35.8332 10.9659 35.8332 11.2009C35.8332 11.5089 35.9385 11.7601 36.1492 11.9546C36.36 12.141 36.6517 12.2342 37.0245 12.2342ZM42.0218 13.0851C41.6166 13.0851 41.4141 12.8784 41.4141 12.4651V7.60279C41.4141 7.1895 41.6126 6.98285 42.0097 6.98285C42.4068 6.98285 42.6053 7.1895 42.6053 7.60279V8.05256C42.8079 7.69599 43.0835 7.42451 43.4319 7.23812C43.7885 7.05173 44.1856 6.95854 44.6232 6.95854C46.0252 6.95854 46.7261 7.75272 46.7261 9.34108V12.4651C46.7261 12.8784 46.5235 13.0851 46.1184 13.0851C45.7051 13.0851 45.4984 12.8784 45.4984 12.4651V9.41401C45.4984 8.90347 45.3971 8.53069 45.1945 8.29568C45 8.06066 44.6921 7.94316 44.2707 7.94316C43.7763 7.94316 43.3792 8.10118 43.0794 8.41723C42.7877 8.72518 42.6418 9.13443 42.6418 9.64497V12.4651C42.6418 12.8784 42.4351 13.0851 42.0218 13.0851ZM50.9949 13.1094C50.3952 13.1094 49.8766 12.9838 49.439 12.7326C49.0014 12.4814 48.661 12.1288 48.4179 11.675C48.1829 11.2131 48.0654 10.6661 48.0654 10.034C48.0654 9.40186 48.1829 8.8589 48.4179 8.40508C48.661 7.94316 49.0014 7.58659 49.439 7.33537C49.8766 7.08415 50.3952 6.95854 50.9949 6.95854C51.5784 6.95854 52.089 7.08415 52.5266 7.33537C52.9642 7.58659 53.3045 7.94316 53.5477 8.40508C53.7908 8.8589 53.9123 9.40186 53.9123 10.034C53.9123 10.6661 53.7908 11.2131 53.5477 11.675C53.3045 12.1288 52.9642 12.4814 52.5266 12.7326C52.089 12.9838 51.5784 13.1094 50.9949 13.1094ZM50.9949 12.1612C51.4974 12.1612 51.9026 11.9789 52.2105 11.6142C52.5185 11.2496 52.6724 10.7228 52.6724 10.034C52.6724 9.34513 52.5185 8.82243 52.2105 8.46586C51.9026 8.10118 51.4974 7.91885 50.9949 7.91885C50.4844 7.91885 50.0751 8.10118 49.7672 8.46586C49.4592 8.82243 49.3053 9.34513 49.3053 10.034C49.3053 10.7228 49.4592 11.2496 49.7672 11.6142C50.0751 11.9789 50.4844 12.1612 50.9949 12.1612Z" fill="#242424"/>
<path d="M10 1H57V-1H10V1ZM57 18H10V20H57V18ZM10 18C5.30558 18 1.5 14.1944 1.5 9.5H-0.5C-0.5 15.299 4.20101 20 10 20V18ZM65.5 9.5C65.5 14.1944 61.6944 18 57 18V20C62.799 20 67.5 15.299 67.5 9.5H65.5ZM57 1C61.6944 1 65.5 4.80558 65.5 9.5H67.5C67.5 3.70101 62.799 -1 57 -1V1ZM10 -1C4.20101 -1 -0.5 3.70101 -0.5 9.5H1.5C1.5 4.80558 5.30558 1 10 1V-1Z" fill="black"/>
</g>
<defs>
<clipPath id="clip0_0_32">
<rect width="67" height="19" fill="white"/>
</clipPath>
</defs>
</svg>
