<svg width="80" height="19" viewBox="0 0 80 19" fill="none" xmlns="http://www.w3.org/2000/svg">
<g clip-path="url(#clip0_0_35)">
<path d="M16.3532 13.1094C15.794 13.1094 15.2551 13.0446 14.7365 12.9149C14.2259 12.7852 13.7802 12.5908 13.3993 12.3314C13.2454 12.2261 13.1522 12.1005 13.1197 11.9546C13.0873 11.8006 13.0995 11.6629 13.1562 11.5413C13.221 11.4116 13.3142 11.3225 13.4358 11.2739C13.5655 11.2252 13.7113 11.2536 13.8734 11.359C14.2381 11.594 14.623 11.7682 15.0282 11.8817C15.4334 11.987 15.8751 12.0397 16.3532 12.0397C17.042 12.0397 17.5485 11.9181 17.8727 11.675C18.2049 11.4238 18.3711 11.0996 18.3711 10.7025C18.3711 10.3784 18.2536 10.1231 18.0185 9.93673C17.7835 9.74224 17.3905 9.58827 16.8394 9.47481L15.5388 9.20738C14.7689 9.04531 14.1935 8.77788 13.8126 8.4051C13.4399 8.03232 13.2535 7.52988 13.2535 6.89778C13.2535 6.38723 13.3872 5.93747 13.6546 5.54848C13.9301 5.15949 14.311 4.85965 14.7973 4.64895C15.2835 4.43014 15.8427 4.32074 16.4748 4.32074C16.9772 4.32074 17.4472 4.38557 17.8848 4.51523C18.3305 4.6449 18.7276 4.84344 19.0761 5.11087C19.2139 5.20812 19.2949 5.32562 19.3192 5.46339C19.3435 5.60115 19.3233 5.73082 19.2584 5.85238C19.1936 5.96583 19.0964 6.04282 18.9667 6.08334C18.837 6.12386 18.6871 6.09144 18.5169 5.98609C18.2009 5.77539 17.8767 5.62547 17.5445 5.53632C17.2122 5.43908 16.8516 5.39045 16.4626 5.39045C15.8629 5.39045 15.3848 5.52417 15.0282 5.7916C14.6797 6.05902 14.5055 6.4156 14.5055 6.86131C14.5055 7.20167 14.6149 7.47315 14.8337 7.67575C15.0525 7.87835 15.4172 8.03232 15.9277 8.13767L17.2163 8.4051C18.0266 8.57528 18.6304 8.83866 19.0275 9.19523C19.4246 9.54369 19.6231 10.0178 19.6231 10.6175C19.6231 11.1199 19.4894 11.5575 19.222 11.9303C18.9545 12.3031 18.5777 12.5948 18.0915 12.8055C17.6052 13.0081 17.0258 13.1094 16.3532 13.1094ZM21.5324 5.74297C21.2893 5.74297 21.0989 5.68219 20.9611 5.56064C20.8314 5.43908 20.7666 5.2689 20.7666 5.05009C20.7666 4.58817 21.0219 4.35721 21.5324 4.35721C22.043 4.35721 22.2982 4.58817 22.2982 5.05009C22.2982 5.51201 22.043 5.74297 21.5324 5.74297ZM21.5324 13.0729C21.1272 13.0729 20.9246 12.8501 20.9246 12.4044V7.66359C20.9246 7.22598 21.1272 7.00718 21.5324 7.00718C21.9457 7.00718 22.1524 7.22598 22.1524 7.66359V12.4044C22.1524 12.8501 21.9457 13.0729 21.5324 13.0729ZM24.4883 13.0851C24.0831 13.0851 23.8805 12.8784 23.8805 12.4651V7.60281C23.8805 7.18952 24.079 6.98287 24.4761 6.98287C24.8732 6.98287 25.0718 7.18952 25.0718 7.60281V8.05258C25.2744 7.69601 25.5499 7.42453 25.8984 7.23814C26.2549 7.05175 26.652 6.95856 27.0896 6.95856C28.4916 6.95856 29.1926 7.75274 29.1926 9.3411V12.4651C29.1926 12.8784 28.99 13.0851 28.5848 13.0851C28.1715 13.0851 27.9649 12.8784 27.9649 12.4651V9.41403C27.9649 8.90349 27.8636 8.53071 27.661 8.2957C27.4665 8.06068 27.1585 7.94318 26.7371 7.94318C26.2428 7.94318 25.8457 8.1012 25.5458 8.41725C25.2541 8.7252 25.1082 9.13445 25.1082 9.64499V12.4651C25.1082 12.8784 24.9016 13.0851 24.4883 13.0851ZM38.9275 15.2731C38.5223 15.2731 38.3197 15.0665 38.3197 14.6532V12.0275C38.1495 12.3598 37.8902 12.6232 37.5417 12.8177C37.1933 13.0122 36.7962 13.1094 36.3505 13.1094C35.8237 13.1094 35.3659 12.9878 34.9769 12.7447C34.5879 12.4935 34.284 12.1369 34.0652 11.675C33.8464 11.2131 33.737 10.6661 33.737 10.034C33.737 9.40188 33.8464 8.85892 34.0652 8.4051C34.284 7.94318 34.5879 7.58661 34.9769 7.33539C35.374 7.08417 35.8318 6.95856 36.3505 6.95856C36.7962 6.95856 37.1933 7.05985 37.5417 7.26245C37.8902 7.45694 38.1536 7.72437 38.3319 8.06474V7.60281C38.3319 7.18952 38.5345 6.98287 38.9397 6.98287C39.3449 6.98287 39.5475 7.18952 39.5475 7.60281V14.6532C39.5475 15.0665 39.3408 15.2731 38.9275 15.2731ZM36.6665 12.1612C37.169 12.1612 37.5742 11.9789 37.8821 11.6142C38.1901 11.2496 38.344 10.7228 38.344 10.034C38.344 9.34515 38.1901 8.82245 37.8821 8.46588C37.5742 8.1012 37.169 7.91887 36.6665 7.91887C36.156 7.91887 35.7467 8.1012 35.4388 8.46588C35.1308 8.82245 34.9769 9.34515 34.9769 10.034C34.9769 10.7228 35.1308 11.2496 35.4388 11.6142C35.7467 11.9789 36.156 12.1612 36.6665 12.1612ZM43.3865 13.1094C41.9521 13.1094 41.2349 12.3112 41.2349 10.7147V7.60281C41.2349 7.18952 41.4375 6.98287 41.8427 6.98287C42.256 6.98287 42.4627 7.18952 42.4627 7.60281V10.7269C42.4627 11.205 42.5599 11.5575 42.7544 11.7844C42.9489 12.0113 43.2569 12.1248 43.6783 12.1248C44.1402 12.1248 44.513 11.9708 44.7966 11.6629C45.0883 11.3549 45.2342 10.9416 45.2342 10.423V7.60281C45.2342 7.18952 45.4408 6.98287 45.8541 6.98287C46.2593 6.98287 46.4619 7.18952 46.4619 7.60281V12.4651C46.4619 12.8784 46.2634 13.0851 45.8663 13.0851C45.4692 13.0851 45.2707 12.8784 45.2707 12.4651V12.0518C45.0762 12.4003 44.8168 12.6637 44.4927 12.842C44.1685 13.0203 43.7998 13.1094 43.3865 13.1094ZM50.9758 13.1094C50.0034 13.1094 49.2375 12.8379 48.6784 12.295C48.1192 11.7439 47.8396 10.9943 47.8396 10.0461C47.8396 9.43834 47.9612 8.90349 48.2043 8.44157C48.4555 7.97154 48.7999 7.60687 49.2375 7.34754C49.6752 7.08822 50.1776 6.95856 50.7449 6.95856C51.5634 6.95856 52.2076 7.22193 52.6776 7.74868C53.1477 8.26733 53.3827 8.98453 53.3827 9.90026C53.3827 10.1758 53.2206 10.3136 52.8965 10.3136H49.0309C49.12 11.5454 49.7724 12.1612 50.988 12.1612C51.2311 12.1612 51.4864 12.1329 51.7538 12.0762C52.0212 12.0113 52.2806 11.8979 52.5318 11.7358C52.702 11.6385 52.8478 11.6061 52.9694 11.6385C53.099 11.6629 53.1922 11.7317 53.249 11.8452C53.3057 11.9505 53.3138 12.0721 53.2733 12.2099C53.2409 12.3395 53.1477 12.453 52.9937 12.5502C52.7182 12.7366 52.394 12.8784 52.0212 12.9757C51.6566 13.0648 51.3081 13.1094 50.9758 13.1094ZM50.7935 7.82162C50.283 7.82162 49.8778 7.97964 49.5779 8.2957C49.2781 8.61175 49.0957 9.03315 49.0309 9.5599H52.3494C52.3251 9.00884 52.1793 8.58338 51.9118 8.28354C51.6444 7.97559 51.2716 7.82162 50.7935 7.82162ZM56.7998 13.1094C56.4432 13.1094 56.0745 13.0689 55.6936 12.9878C55.3127 12.9068 54.9683 12.769 54.6604 12.5745C54.5226 12.4935 54.4375 12.3922 54.4051 12.2707C54.3727 12.1491 54.3808 12.0356 54.4294 11.9303C54.478 11.8249 54.555 11.752 54.6604 11.7115C54.7738 11.6629 54.8994 11.675 55.0372 11.748C55.3533 11.9181 55.6572 12.0397 55.9489 12.1126C56.2406 12.1856 56.5283 12.222 56.812 12.222C57.2415 12.222 57.5656 12.145 57.7844 11.9911C58.0032 11.8371 58.1126 11.6304 58.1126 11.3711C58.1126 11.1604 58.0397 10.9983 57.8938 10.8849C57.748 10.7633 57.5292 10.6701 57.2374 10.6053L56.0826 10.3743C55.0615 10.1636 54.551 9.63689 54.551 8.79408C54.551 8.23492 54.7738 7.7892 55.2195 7.45694C55.6653 7.12469 56.2487 6.95856 56.97 6.95856C57.6993 6.95856 58.3274 7.13684 58.8541 7.49341C58.9838 7.57445 59.0608 7.67575 59.0851 7.79731C59.1094 7.91076 59.0932 8.02016 59.0365 8.12551C58.9797 8.22276 58.8947 8.29164 58.7812 8.33216C58.6759 8.37268 58.5502 8.35648 58.4044 8.28354C58.1613 8.13767 57.9181 8.03232 57.675 7.96749C57.4319 7.89455 57.1969 7.85809 56.97 7.85809C56.5486 7.85809 56.2285 7.93913 56.0097 8.1012C55.7909 8.25518 55.6815 8.46588 55.6815 8.73331C55.6815 9.1385 55.9489 9.39782 56.4837 9.51128L57.6386 9.74224C58.1653 9.84759 58.5624 10.0259 58.8298 10.2771C59.1054 10.5283 59.2431 10.8687 59.2431 11.2982C59.2431 11.8655 59.0203 12.3112 58.5746 12.6353C58.1288 12.9514 57.5373 13.1094 56.7998 13.1094ZM63.1862 13.1094C62.5865 13.1094 62.0678 12.9838 61.6302 12.7326C61.1926 12.4814 60.8522 12.1288 60.6091 11.675C60.3741 11.2131 60.2566 10.6661 60.2566 10.034C60.2566 9.40188 60.3741 8.85892 60.6091 8.4051C60.8522 7.94318 61.1926 7.58661 61.6302 7.33539C62.0678 7.08417 62.5865 6.95856 63.1862 6.95856C63.7696 6.95856 64.2802 7.08417 64.7178 7.33539C65.1554 7.58661 65.4958 7.94318 65.7389 8.4051C65.982 8.85892 66.1036 9.40188 66.1036 10.034C66.1036 10.6661 65.982 11.2131 65.7389 11.675C65.4958 12.1288 65.1554 12.4814 64.7178 12.7326C64.2802 12.9838 63.7696 13.1094 63.1862 13.1094ZM63.1862 12.1612C63.6886 12.1612 64.0938 11.9789 64.4017 11.6142C64.7097 11.2496 64.8637 10.7228 64.8637 10.034C64.8637 9.34515 64.7097 8.82245 64.4017 8.46588C64.0938 8.1012 63.6886 7.91887 63.1862 7.91887C62.6756 7.91887 62.2664 8.1012 61.9584 8.46588C61.6505 8.82245 61.4965 9.34515 61.4965 10.034C61.4965 10.7228 61.6505 11.2496 61.9584 11.6142C62.2664 11.9789 62.6756 12.1612 63.1862 12.1612Z" fill="#242424"/>
<path d="M10 1H70V-1H10V1ZM70 18H10V20H70V18ZM10 18C5.30558 18 1.5 14.1944 1.5 9.5H-0.5C-0.5 15.299 4.20101 20 10 20V18ZM78.5 9.5C78.5 14.1944 74.6944 18 70 18V20C75.799 20 80.5 15.299 80.5 9.5H78.5ZM70 1C74.6944 1 78.5 4.80558 78.5 9.5H80.5C80.5 3.70101 75.799 -1 70 -1V1ZM10 -1C4.20101 -1 -0.5 3.70101 -0.5 9.5H1.5C1.5 4.80558 5.30558 1 10 1V-1Z" fill="black"/>
</g>
<defs>
<clipPath id="clip0_0_35">
<rect width="80" height="19" fill="white"/>
</clipPath>
</defs>
</svg>
