<svg width="69" height="19" viewBox="0 0 69 19" fill="none" xmlns="http://www.w3.org/2000/svg">
<path d="M15.8534 13.1094C15.2942 13.1094 14.7553 13.0446 14.2367 12.9149C13.7261 12.7852 13.2804 12.5908 12.8995 12.3314C12.7456 12.2261 12.6524 12.1005 12.6199 11.9546C12.5875 11.8006 12.5997 11.6629 12.6564 11.5413C12.7212 11.4116 12.8144 11.3225 12.936 11.2739C13.0657 11.2252 13.2115 11.2536 13.3736 11.359C13.7383 11.594 14.1232 11.7682 14.5284 11.8817C14.9336 11.987 15.3753 12.0397 15.8534 12.0397C16.5422 12.0397 17.0487 11.9181 17.3729 11.675C17.7051 11.4238 17.8713 11.0996 17.8713 10.7025C17.8713 10.3784 17.7538 10.1231 17.5187 9.93673C17.2837 9.74224 16.8907 9.58827 16.3396 9.47481L15.039 9.20738C14.2691 9.04531 13.6937 8.77788 13.3128 8.4051C12.9401 8.03232 12.7537 7.52988 12.7537 6.89778C12.7537 6.38723 12.8874 5.93747 13.1548 5.54848C13.4303 5.15949 13.8112 4.85965 14.2975 4.64895C14.7837 4.43014 15.3429 4.32074 15.975 4.32074C16.4774 4.32074 16.9474 4.38557 17.385 4.51523C17.8307 4.6449 18.2278 4.84344 18.5763 5.11087C18.7141 5.20812 18.7951 5.32562 18.8194 5.46339C18.8437 5.60115 18.8235 5.73082 18.7586 5.85238C18.6938 5.96583 18.5966 6.04282 18.4669 6.08334C18.3372 6.12386 18.1873 6.09144 18.0171 5.98609C17.7011 5.77539 17.3769 5.62547 17.0447 5.53632C16.7124 5.43908 16.3518 5.39045 15.9628 5.39045C15.3631 5.39045 14.885 5.52417 14.5284 5.7916C14.1799 6.05902 14.0057 6.4156 14.0057 6.86131C14.0057 7.20167 14.1151 7.47315 14.3339 7.67575C14.5527 7.87835 14.9174 8.03232 15.4279 8.13767L16.7165 8.4051C17.5268 8.57528 18.1306 8.83866 18.5277 9.19523C18.9248 9.54369 19.1233 10.0178 19.1233 10.6175C19.1233 11.1199 18.9896 11.5575 18.7222 11.9303C18.4547 12.3031 18.0779 12.5948 17.5917 12.8055C17.1054 13.0081 16.526 13.1094 15.8534 13.1094ZM21.0326 5.74297C20.7895 5.74297 20.5991 5.68219 20.4613 5.56064C20.3316 5.43908 20.2668 5.2689 20.2668 5.05009C20.2668 4.58817 20.5221 4.35721 21.0326 4.35721C21.5432 4.35721 21.7984 4.58817 21.7984 5.05009C21.7984 5.51201 21.5432 5.74297 21.0326 5.74297ZM21.0326 13.0729C20.6274 13.0729 20.4248 12.8501 20.4248 12.4044V7.66359C20.4248 7.22598 20.6274 7.00718 21.0326 7.00718C21.4459 7.00718 21.6526 7.22598 21.6526 7.66359V12.4044C21.6526 12.8501 21.4459 13.0729 21.0326 13.0729ZM23.9885 13.0851C23.5833 13.0851 23.3807 12.8784 23.3807 12.4651V7.60281C23.3807 7.18952 23.5792 6.98287 23.9763 6.98287C24.3734 6.98287 24.572 7.18952 24.572 7.60281V8.05258C24.7746 7.69601 25.0501 7.42453 25.3986 7.23814C25.7551 7.05175 26.1522 6.95856 26.5898 6.95856C27.9918 6.95856 28.6928 7.75274 28.6928 9.3411V12.4651C28.6928 12.8784 28.4902 13.0851 28.085 13.0851C27.6717 13.0851 27.4651 12.8784 27.4651 12.4651V9.41403C27.4651 8.90349 27.3638 8.53071 27.1612 8.2957C26.9667 8.06068 26.6587 7.94318 26.2373 7.94318C25.743 7.94318 25.3459 8.1012 25.046 8.41725C24.7543 8.7252 24.6084 9.13445 24.6084 9.64499V12.4651C24.6084 12.8784 24.4018 13.0851 23.9885 13.0851ZM36.4463 13.0851C36.0249 13.0851 35.8142 12.8703 35.8142 12.4408V5.4877H33.2372C32.8725 5.4877 32.6902 5.30942 32.6902 4.95284C32.6902 4.60438 32.8725 4.43014 33.2372 4.43014H39.6433C40.0161 4.43014 40.2025 4.60438 40.2025 4.95284C40.2025 5.30942 40.0161 5.4877 39.6433 5.4877H37.0663V12.4408C37.0663 12.8703 36.8596 13.0851 36.4463 13.0851ZM41.9794 13.1094C41.5661 13.1094 41.1974 13.0284 40.8732 12.8663C40.5491 12.7042 40.2897 12.4854 40.0952 12.2099C39.9089 11.9343 39.8157 11.6223 39.8157 11.2739C39.8157 10.8363 39.9251 10.4918 40.1439 10.2406C40.3708 9.98941 40.7395 9.80707 41.25 9.69362C41.7687 9.58016 42.4656 9.52343 43.3408 9.52343H43.7541V9.20738C43.7541 8.74546 43.6569 8.4132 43.4624 8.21061C43.2679 8.00801 42.9478 7.90671 42.5021 7.90671C42.2428 7.90671 41.9713 7.93913 41.6877 8.00396C41.4121 8.06879 41.1244 8.17819 40.8246 8.33216C40.6544 8.4132 40.5126 8.42536 40.3991 8.36863C40.2938 8.3119 40.2209 8.22276 40.1803 8.1012C40.1398 7.97964 40.1439 7.85403 40.1925 7.72437C40.2411 7.59471 40.3424 7.49746 40.4964 7.43263C40.853 7.27055 41.2055 7.15305 41.5539 7.08011C41.9024 6.99907 42.2306 6.95856 42.5386 6.95856C43.349 6.95856 43.9486 7.15305 44.3376 7.54203C44.7266 7.92292 44.9211 8.5226 44.9211 9.3411V12.4651C44.9211 12.8784 44.7307 13.0851 44.3498 13.0851C43.9608 13.0851 43.7663 12.8784 43.7663 12.4651V12.0154C43.6204 12.3557 43.3935 12.6232 43.0856 12.8177C42.7776 13.0122 42.4089 13.1094 41.9794 13.1094ZM42.2225 12.2342C42.6601 12.2342 43.0248 12.0802 43.3165 11.7723C43.6083 11.4643 43.7541 11.0753 43.7541 10.6053V10.2771H43.353C42.7614 10.2771 42.2954 10.3055 41.9551 10.3622C41.6228 10.4189 41.3838 10.5162 41.2379 10.6539C41.1001 10.7836 41.0312 10.9659 41.0312 11.2009C41.0312 11.5089 41.1366 11.7601 41.3473 11.9546C41.558 12.141 41.8497 12.2342 42.2225 12.2342ZM49.2256 13.1094C48.6178 13.1094 48.0911 12.9838 47.6453 12.7326C47.2077 12.4732 46.8674 12.1126 46.6243 11.6507C46.3811 11.1807 46.2596 10.6296 46.2596 9.99751C46.2596 9.05746 46.527 8.31596 47.0619 7.773C47.5967 7.23004 48.318 6.95856 49.2256 6.95856C49.5092 6.95856 49.805 7.00313 50.113 7.09227C50.429 7.17331 50.7208 7.31107 50.9882 7.50557C51.1179 7.58661 51.1908 7.69196 51.207 7.82162C51.2313 7.94318 51.211 8.06068 51.1462 8.17414C51.0895 8.27949 51.0044 8.35242 50.8909 8.39294C50.7775 8.42536 50.6478 8.40105 50.502 8.32001C50.3075 8.18224 50.1089 8.085 49.9063 8.02827C49.7037 7.96344 49.5092 7.93102 49.3228 7.93102C48.7475 7.93102 48.3018 8.11336 47.9857 8.47803C47.6778 8.8346 47.5238 9.34515 47.5238 10.0097C47.5238 10.6742 47.6778 11.1969 47.9857 11.5778C48.3018 11.9505 48.7475 12.1369 49.3228 12.1369C49.5092 12.1369 49.6997 12.1086 49.8942 12.0518C50.0968 11.9951 50.2994 11.8979 50.502 11.7601C50.6478 11.6791 50.7734 11.6588 50.8788 11.6993C50.9922 11.7398 51.0733 11.8168 51.1219 11.9303C51.1786 12.0356 51.1948 12.1531 51.1705 12.2828C51.1543 12.4044 51.0814 12.5057 50.9517 12.5867C50.6924 12.7731 50.4088 12.9068 50.1008 12.9878C49.801 13.0689 49.5092 13.1094 49.2256 13.1094ZM54.7812 13.1094C54.1734 13.1094 53.6466 12.9838 53.2009 12.7326C52.7633 12.4732 52.423 12.1126 52.1798 11.6507C51.9367 11.1807 51.8152 10.6296 51.8152 9.99751C51.8152 9.05746 52.0826 8.31596 52.6175 7.773C53.1523 7.23004 53.8736 6.95856 54.7812 6.95856C55.0648 6.95856 55.3606 7.00313 55.6686 7.09227C55.9846 7.17331 56.2764 7.31107 56.5438 7.50557C56.6734 7.58661 56.7464 7.69196 56.7626 7.82162C56.7869 7.94318 56.7666 8.06068 56.7018 8.17414C56.6451 8.27949 56.56 8.35242 56.4465 8.39294C56.3331 8.42536 56.2034 8.40105 56.0576 8.32001C55.8631 8.18224 55.6645 8.085 55.4619 8.02827C55.2593 7.96344 55.0648 7.93102 54.8784 7.93102C54.3031 7.93102 53.8573 8.11336 53.5413 8.47803C53.2333 8.8346 53.0794 9.34515 53.0794 10.0097C53.0794 10.6742 53.2333 11.1969 53.5413 11.5778C53.8573 11.9505 54.3031 12.1369 54.8784 12.1369C55.0648 12.1369 55.2553 12.1086 55.4498 12.0518C55.6524 11.9951 55.855 11.8979 56.0576 11.7601C56.2034 11.6791 56.329 11.6588 56.4344 11.6993C56.5478 11.7398 56.6289 11.8168 56.6775 11.9303C56.7342 12.0356 56.7504 12.1531 56.7261 12.2828C56.7099 12.4044 56.637 12.5057 56.5073 12.5867C56.248 12.7731 55.9644 12.9068 55.6564 12.9878C55.3566 13.0689 55.0648 13.1094 54.7812 13.1094Z" fill="#242424"/>
<path d="M9.5 1H59.5V-1H9.5V1ZM59.5 18H9.5V20H59.5V18ZM9.5 18C4.80558 18 1 14.1944 1 9.5H-1C-1 15.299 3.70101 20 9.5 20V18ZM68 9.5C68 14.1944 64.1944 18 59.5 18V20C65.299 20 70 15.299 70 9.5H68ZM59.5 1C64.1944 1 68 4.80558 68 9.5H70C70 3.70101 65.299 -1 59.5 -1V1ZM9.5 -1C3.70101 -1 -1 3.70101 -1 9.5H1C1 4.80558 4.80558 1 9.5 1V-1Z" fill="black"/>
</svg>
