<svg width="80" height="19" viewBox="0 0 80 19" fill="none" xmlns="http://www.w3.org/2000/svg">
<path d="M16.3534 13.1094C15.7942 13.1094 15.2553 13.0446 14.7367 12.9149C14.2261 12.7852 13.7804 12.5908 13.3995 12.3314C13.2456 12.2261 13.1524 12.1005 13.1199 11.9546C13.0875 11.8006 13.0997 11.6629 13.1564 11.5413C13.2212 11.4116 13.3144 11.3225 13.436 11.2739C13.5657 11.2252 13.7115 11.2536 13.8736 11.359C14.2383 11.594 14.6232 11.7682 15.0284 11.8817C15.4336 11.987 15.8753 12.0397 16.3534 12.0397C17.0422 12.0397 17.5487 11.9181 17.8729 11.675C18.2051 11.4238 18.3713 11.0996 18.3713 10.7025C18.3713 10.3784 18.2538 10.1231 18.0187 9.93673C17.7837 9.74224 17.3907 9.58827 16.8396 9.47481L15.539 9.20738C14.7691 9.04531 14.1937 8.77788 13.8128 8.4051C13.4401 8.03232 13.2537 7.52988 13.2537 6.89778C13.2537 6.38723 13.3874 5.93747 13.6548 5.54848C13.9303 5.15949 14.3112 4.85965 14.7975 4.64895C15.2837 4.43014 15.8429 4.32074 16.475 4.32074C16.9774 4.32074 17.4474 4.38557 17.885 4.51523C18.3307 4.6449 18.7278 4.84344 19.0763 5.11087C19.2141 5.20812 19.2951 5.32562 19.3194 5.46339C19.3437 5.60115 19.3235 5.73082 19.2586 5.85238C19.1938 5.96583 19.0966 6.04282 18.9669 6.08334C18.8372 6.12386 18.6873 6.09144 18.5171 5.98609C18.2011 5.77539 17.8769 5.62547 17.5447 5.53632C17.2124 5.43908 16.8518 5.39045 16.4628 5.39045C15.8631 5.39045 15.385 5.52417 15.0284 5.7916C14.6799 6.05902 14.5057 6.4156 14.5057 6.86131C14.5057 7.20167 14.6151 7.47315 14.8339 7.67575C15.0527 7.87835 15.4174 8.03232 15.9279 8.13767L17.2165 8.4051C18.0268 8.57528 18.6306 8.83866 19.0277 9.19523C19.4248 9.54369 19.6233 10.0178 19.6233 10.6175C19.6233 11.1199 19.4896 11.5575 19.2222 11.9303C18.9547 12.3031 18.5779 12.5948 18.0917 12.8055C17.6054 13.0081 17.026 13.1094 16.3534 13.1094ZM21.5326 5.74297C21.2895 5.74297 21.0991 5.68219 20.9613 5.56064C20.8316 5.43908 20.7668 5.2689 20.7668 5.05009C20.7668 4.58817 21.0221 4.35721 21.5326 4.35721C22.0432 4.35721 22.2984 4.58817 22.2984 5.05009C22.2984 5.51201 22.0432 5.74297 21.5326 5.74297ZM21.5326 13.0729C21.1274 13.0729 20.9248 12.8501 20.9248 12.4044V7.66359C20.9248 7.22598 21.1274 7.00718 21.5326 7.00718C21.9459 7.00718 22.1526 7.22598 22.1526 7.66359V12.4044C22.1526 12.8501 21.9459 13.0729 21.5326 13.0729ZM24.4885 13.0851C24.0833 13.0851 23.8807 12.8784 23.8807 12.4651V7.60281C23.8807 7.18952 24.0792 6.98287 24.4763 6.98287C24.8734 6.98287 25.072 7.18952 25.072 7.60281V8.05258C25.2746 7.69601 25.5501 7.42453 25.8986 7.23814C26.2551 7.05175 26.6522 6.95856 27.0898 6.95856C28.4918 6.95856 29.1928 7.75274 29.1928 9.3411V12.4651C29.1928 12.8784 28.9902 13.0851 28.585 13.0851C28.1717 13.0851 27.9651 12.8784 27.9651 12.4651V9.41403C27.9651 8.90349 27.8638 8.53071 27.6612 8.2957C27.4667 8.06068 27.1587 7.94318 26.7373 7.94318C26.243 7.94318 25.8459 8.1012 25.546 8.41725C25.2543 8.7252 25.1084 9.13445 25.1084 9.64499V12.4651C25.1084 12.8784 24.9018 13.0851 24.4885 13.0851ZM38.9277 15.2731C38.5225 15.2731 38.3199 15.0665 38.3199 14.6532V12.0275C38.1497 12.3598 37.8904 12.6232 37.5419 12.8177C37.1935 13.0122 36.7964 13.1094 36.3507 13.1094C35.8239 13.1094 35.3661 12.9878 34.9771 12.7447C34.5881 12.4935 34.2842 12.1369 34.0654 11.675C33.8466 11.2131 33.7372 10.6661 33.7372 10.034C33.7372 9.40188 33.8466 8.85892 34.0654 8.4051C34.2842 7.94318 34.5881 7.58661 34.9771 7.33539C35.3742 7.08417 35.832 6.95856 36.3507 6.95856C36.7964 6.95856 37.1935 7.05985 37.5419 7.26245C37.8904 7.45694 38.1538 7.72437 38.3321 8.06474V7.60281C38.3321 7.18952 38.5347 6.98287 38.9399 6.98287C39.3451 6.98287 39.5477 7.18952 39.5477 7.60281V14.6532C39.5477 15.0665 39.341 15.2731 38.9277 15.2731ZM36.6667 12.1612C37.1692 12.1612 37.5744 11.9789 37.8823 11.6142C38.1903 11.2496 38.3442 10.7228 38.3442 10.034C38.3442 9.34515 38.1903 8.82245 37.8823 8.46588C37.5744 8.1012 37.1692 7.91887 36.6667 7.91887C36.1562 7.91887 35.7469 8.1012 35.439 8.46588C35.131 8.82245 34.9771 9.34515 34.9771 10.034C34.9771 10.7228 35.131 11.2496 35.439 11.6142C35.7469 11.9789 36.1562 12.1612 36.6667 12.1612ZM43.3867 13.1094C41.9523 13.1094 41.2351 12.3112 41.2351 10.7147V7.60281C41.2351 7.18952 41.4377 6.98287 41.8429 6.98287C42.2562 6.98287 42.4629 7.18952 42.4629 7.60281V10.7269C42.4629 11.205 42.5601 11.5575 42.7546 11.7844C42.9491 12.0113 43.2571 12.1248 43.6785 12.1248C44.1404 12.1248 44.5132 11.9708 44.7968 11.6629C45.0885 11.3549 45.2344 10.9416 45.2344 10.423V7.60281C45.2344 7.18952 45.441 6.98287 45.8543 6.98287C46.2595 6.98287 46.4621 7.18952 46.4621 7.60281V12.4651C46.4621 12.8784 46.2636 13.0851 45.8665 13.0851C45.4694 13.0851 45.2709 12.8784 45.2709 12.4651V12.0518C45.0764 12.4003 44.817 12.6637 44.4929 12.842C44.1687 13.0203 43.8 13.1094 43.3867 13.1094ZM50.976 13.1094C50.0036 13.1094 49.2377 12.8379 48.6786 12.295C48.1194 11.7439 47.8398 10.9943 47.8398 10.0461C47.8398 9.43834 47.9614 8.90349 48.2045 8.44157C48.4557 7.97154 48.8001 7.60687 49.2377 7.34754C49.6754 7.08822 50.1778 6.95856 50.7451 6.95856C51.5636 6.95856 52.2078 7.22193 52.6778 7.74868C53.1479 8.26733 53.3829 8.98453 53.3829 9.90026C53.3829 10.1758 53.2208 10.3136 52.8967 10.3136H49.0311C49.1202 11.5454 49.7726 12.1612 50.9882 12.1612C51.2313 12.1612 51.4866 12.1329 51.754 12.0762C52.0214 12.0113 52.2808 11.8979 52.532 11.7358C52.7022 11.6385 52.848 11.6061 52.9696 11.6385C53.0992 11.6629 53.1924 11.7317 53.2492 11.8452C53.3059 11.9505 53.314 12.0721 53.2735 12.2099C53.2411 12.3395 53.1479 12.453 52.9939 12.5502C52.7184 12.7366 52.3942 12.8784 52.0214 12.9757C51.6568 13.0648 51.3083 13.1094 50.976 13.1094ZM50.7937 7.82162C50.2832 7.82162 49.878 7.97964 49.5781 8.2957C49.2783 8.61175 49.0959 9.03315 49.0311 9.5599H52.3496C52.3253 9.00884 52.1795 8.58338 51.912 8.28354C51.6446 7.97559 51.2718 7.82162 50.7937 7.82162ZM56.8 13.1094C56.4434 13.1094 56.0747 13.0689 55.6938 12.9878C55.3129 12.9068 54.9685 12.769 54.6606 12.5745C54.5228 12.4935 54.4377 12.3922 54.4053 12.2707C54.3729 12.1491 54.381 12.0356 54.4296 11.9303C54.4782 11.8249 54.5552 11.752 54.6606 11.7115C54.774 11.6629 54.8996 11.675 55.0374 11.748C55.3535 11.9181 55.6574 12.0397 55.9491 12.1126C56.2408 12.1856 56.5285 12.222 56.8122 12.222C57.2417 12.222 57.5658 12.145 57.7846 11.9911C58.0034 11.8371 58.1128 11.6304 58.1128 11.3711C58.1128 11.1604 58.0399 10.9983 57.894 10.8849C57.7482 10.7633 57.5294 10.6701 57.2376 10.6053L56.0828 10.3743C55.0617 10.1636 54.5512 9.63689 54.5512 8.79408C54.5512 8.23492 54.774 7.7892 55.2197 7.45694C55.6655 7.12469 56.2489 6.95856 56.9702 6.95856C57.6995 6.95856 58.3276 7.13684 58.8543 7.49341C58.984 7.57445 59.061 7.67575 59.0853 7.79731C59.1096 7.91076 59.0934 8.02016 59.0367 8.12551C58.9799 8.22276 58.8949 8.29164 58.7814 8.33216C58.6761 8.37268 58.5504 8.35648 58.4046 8.28354C58.1615 8.13767 57.9183 8.03232 57.6752 7.96749C57.4321 7.89455 57.1971 7.85809 56.9702 7.85809C56.5488 7.85809 56.2287 7.93913 56.0099 8.1012C55.7911 8.25518 55.6817 8.46588 55.6817 8.73331C55.6817 9.1385 55.9491 9.39782 56.4839 9.51128L57.6388 9.74224C58.1655 9.84759 58.5626 10.0259 58.83 10.2771C59.1056 10.5283 59.2433 10.8687 59.2433 11.2982C59.2433 11.8655 59.0205 12.3112 58.5748 12.6353C58.129 12.9514 57.5375 13.1094 56.8 13.1094ZM63.1864 13.1094C62.5867 13.1094 62.068 12.9838 61.6304 12.7326C61.1928 12.4814 60.8524 12.1288 60.6093 11.675C60.3743 11.2131 60.2568 10.6661 60.2568 10.034C60.2568 9.40188 60.3743 8.85892 60.6093 8.4051C60.8524 7.94318 61.1928 7.58661 61.6304 7.33539C62.068 7.08417 62.5867 6.95856 63.1864 6.95856C63.7698 6.95856 64.2804 7.08417 64.718 7.33539C65.1556 7.58661 65.496 7.94318 65.7391 8.4051C65.9822 8.85892 66.1038 9.40188 66.1038 10.034C66.1038 10.6661 65.9822 11.2131 65.7391 11.675C65.496 12.1288 65.1556 12.4814 64.718 12.7326C64.2804 12.9838 63.7698 13.1094 63.1864 13.1094ZM63.1864 12.1612C63.6888 12.1612 64.094 11.9789 64.4019 11.6142C64.7099 11.2496 64.8639 10.7228 64.8639 10.034C64.8639 9.34515 64.7099 8.82245 64.4019 8.46588C64.094 8.1012 63.6888 7.91887 63.1864 7.91887C62.6758 7.91887 62.2666 8.1012 61.9586 8.46588C61.6507 8.82245 61.4967 9.34515 61.4967 10.034C61.4967 10.7228 61.6507 11.2496 61.9586 11.6142C62.2666 11.9789 62.6758 12.1612 63.1864 12.1612Z" fill="#242424"/>
<path d="M10 1H70V-1H10V1ZM70 18H10V20H70V18ZM10 18C5.30558 18 1.5 14.1944 1.5 9.5H-0.5C-0.5 15.299 4.20101 20 10 20V18ZM78.5 9.5C78.5 14.1944 74.6944 18 70 18V20C75.799 20 80.5 15.299 80.5 9.5H78.5ZM70 1C74.6944 1 78.5 4.80558 78.5 9.5H80.5C80.5 3.70101 75.799 -1 70 -1V1ZM10 -1C4.20101 -1 -0.5 3.70101 -0.5 9.5H1.5C1.5 4.80558 5.30558 1 10 1V-1Z" fill="black"/>
</svg>
