<?xml version="1.0" encoding="utf-8"?>
<!-- Generator: Adobe Illustrator 24.1.1, SVG Export Plug-In . SVG Version: 6.00 Build 0)  -->
<svg version="1.1" id="Capa_1" xmlns="http://www.w3.org/2000/svg" xmlns:xlink="http://www.w3.org/1999/xlink" x="0px" y="0px"
	 viewBox="0 0 40.86 40.86" style="enable-background:new 0 0 40.86 40.86;" xml:space="preserve">
<style type="text/css">
	.st0{fill:#222221;}
	.st1{fill:#FFFFFF;}
	.st2{fill-rule:evenodd;clip-rule:evenodd;fill:#FFFFFF;}
	.st3{fill-rule:evenodd;clip-rule:evenodd;fill:#FFFFFF;stroke:#222221;stroke-miterlimit:10;}
	.st4{fill:none;stroke:#222221;stroke-width:1.5;stroke-miterlimit:10;}
	.st5{fill-rule:evenodd;clip-rule:evenodd;fill:#222221;}
</style>
<g id="XMLID_169_">
	<path id="XMLID_179_" class="st4" d="M20.43,39.46L20.43,39.46C9.92,39.46,1.4,30.94,1.4,20.43v0C1.4,9.92,9.92,1.4,20.43,1.4h0
		c10.51,0,19.03,8.52,19.03,19.03v0C39.46,30.94,30.94,39.46,20.43,39.46z"/>
	<path id="XMLID_170_" class="st0" d="M17.53,31.93h4.63v-11.6h3.23l0.34-3.88h-3.58c0,0,0-1.45,0-2.21c0-0.92,0.18-1.28,1.07-1.28
		c0.71,0,2.51,0,2.51,0V8.93c0,0-2.64,0-3.21,0c-3.45,0-5,1.52-5,4.42c0,2.53,0,3.1,0,3.1h-2.41v3.93h2.41V31.93z"/>
</g>
</svg>
