<?xml version="1.0" encoding="utf-8"?>
<!-- Generator: Adobe Illustrator 24.1.1, SVG Export Plug-In . SVG Version: 6.00 Build 0)  -->
<svg version="1.1" id="Capa_1" xmlns="http://www.w3.org/2000/svg" xmlns:xlink="http://www.w3.org/1999/xlink" x="0px" y="0px"
	 viewBox="0 0 40.86 40.86" style="enable-background:new 0 0 40.86 40.86;" xml:space="preserve">
<style type="text/css">
	.st0{fill:#222221;}
	.st1{fill:#FFFFFF;}
	.st2{fill-rule:evenodd;clip-rule:evenodd;fill:#FFFFFF;}
	.st3{fill-rule:evenodd;clip-rule:evenodd;fill:#FFFFFF;stroke:#222221;stroke-miterlimit:10;}
	.st4{fill:none;stroke:#222221;stroke-width:1.5;stroke-miterlimit:10;}
	.st5{fill-rule:evenodd;clip-rule:evenodd;fill:#222221;}
</style>
<g id="XMLID_7_">
	<path id="XMLID_168_" class="st4" d="M20.49,39.51L20.49,39.51c-10.51,0-19.03-8.52-19.03-19.03v0c0-10.51,8.52-19.03,19.03-19.03
		l0,0c10.51,0,19.03,8.52,19.03,19.03v0C39.52,30.99,31,39.51,20.49,39.51z"/>
	<g id="XMLID_8_">
		<path id="XMLID_124_" class="st0" d="M20.49,11.92c2.79,0,3.12,0.01,4.22,0.06c1.02,0.05,1.57,0.22,1.94,0.36
			c0.49,0.19,0.83,0.42,1.2,0.78c0.37,0.37,0.59,0.71,0.78,1.2c0.14,0.37,0.31,0.92,0.36,1.94c0.05,1.1,0.06,1.43,0.06,4.22
			s-0.01,3.12-0.06,4.22c-0.05,1.02-0.22,1.57-0.36,1.94c-0.19,0.49-0.42,0.83-0.78,1.2c-0.36,0.36-0.71,0.59-1.2,0.78
			c-0.37,0.14-0.92,0.31-1.94,0.36c-1.1,0.05-1.43,0.06-4.22,0.06s-3.12-0.01-4.22-0.06c-1.02-0.05-1.57-0.22-1.94-0.36
			c-0.49-0.19-0.83-0.42-1.2-0.78c-0.37-0.37-0.59-0.71-0.78-1.2c-0.14-0.37-0.31-0.92-0.36-1.94c-0.05-1.1-0.06-1.43-0.06-4.22
			s0.01-3.12,0.06-4.22c0.05-1.02,0.22-1.57,0.36-1.94c0.19-0.49,0.42-0.83,0.78-1.2c0.37-0.37,0.71-0.59,1.2-0.78
			c0.37-0.14,0.92-0.31,1.94-0.36C17.38,11.93,17.71,11.92,20.49,11.92 M20.49,10.04c-2.83,0-3.19,0.01-4.3,0.06
			c-1.11,0.05-1.87,0.23-2.53,0.49c-0.69,0.27-1.27,0.62-1.85,1.2c-0.58,0.58-0.94,1.16-1.2,1.85c-0.26,0.66-0.43,1.42-0.49,2.53
			c-0.05,1.11-0.06,1.47-0.06,4.3c0,2.83,0.01,3.19,0.06,4.3c0.05,1.11,0.23,1.87,0.49,2.53c0.27,0.69,0.62,1.27,1.2,1.85
			c0.58,0.58,1.16,0.94,1.85,1.2c0.66,0.26,1.42,0.43,2.53,0.49c1.11,0.05,1.47,0.06,4.3,0.06c2.83,0,3.19-0.01,4.3-0.06
			c1.11-0.05,1.87-0.23,2.53-0.49c0.69-0.27,1.27-0.62,1.85-1.2c0.58-0.58,0.94-1.16,1.2-1.85c0.26-0.66,0.43-1.42,0.49-2.53
			c0.05-1.11,0.06-1.47,0.06-4.3c0-2.83-0.01-3.19-0.06-4.3c-0.05-1.11-0.23-1.87-0.49-2.53c-0.27-0.69-0.62-1.27-1.2-1.85
			c-0.58-0.58-1.16-0.94-1.85-1.2c-0.66-0.26-1.42-0.43-2.53-0.49C23.68,10.05,23.33,10.04,20.49,10.04"/>
		<path id="XMLID_103_" class="st0" d="M20.49,15.12c-2.96,0-5.36,2.4-5.36,5.36c0,2.96,2.4,5.36,5.36,5.36
			c2.96,0,5.36-2.4,5.36-5.36C25.85,17.52,23.45,15.12,20.49,15.12 M20.49,23.95c-1.92,0-3.48-1.56-3.48-3.48
			c0-1.92,1.56-3.48,3.48-3.48s3.48,1.56,3.48,3.48C23.97,22.4,22.41,23.95,20.49,23.95"/>
		<path id="XMLID_9_" class="st0" d="M27.31,14.91c0,0.69-0.56,1.25-1.25,1.25c-0.69,0-1.25-0.56-1.25-1.25
			c0-0.69,0.56-1.25,1.25-1.25C26.75,13.65,27.31,14.21,27.31,14.91"/>
	</g>
</g>
</svg>
