<svg version="1.1" id="Capa_1" xmlns="http://www.w3.org/2000/svg" x="0" y="0" viewBox="0 0 1052 289" xml:space="preserve"><style>.st0{fill:#f2594b}</style><path class="st0" d="M368.58 165.99c0 6.33-2.09 9.93-6.26 10.81-.71.13-7.35.82-19.93 2.07-7.57.82-18.87 1.79-33.89 2.91.9 4.07 3.63 7.17 8.18 9.3 3.72 1.75 7.96 2.63 12.71 2.63 5.71 0 11.46-1.5 17.23-4.51 2.44-1.5 4.88-3.01 7.32-4.51 1.35.63 3.61 3.82 6.79 9.59 3.18 5.76 4.77 9.43 4.77 10.99 0 .44-.48 1.16-1.44 2.16-7.83 8.21-19.99 12.31-36.49 12.31-15.28 0-27.6-4.35-36.97-13.06-9.63-8.84-14.44-20.64-14.44-35.43 0-14.41 4.3-26.22 12.9-35.43 8.86-9.52 20.6-14.28 35.23-14.28 12.32 0 22.78 4.39 31.38 13.16 8.61 8.76 12.91 19.19 12.91 31.29zm-33.69-5.74c0-3.88-1.41-7.3-4.24-10.24-2.82-2.94-6.19-4.42-10.11-4.42-4.04 0-7.38 1.66-10.01 4.98-2.44 3.07-3.66 6.67-3.66 10.81 0 1.69.9 2.54 2.69 2.54 4.75 0 12.13-.72 22.14-2.16 2.13-.32 3.19-.82 3.19-1.51zM806.92 197.69c0 15.76-4.66 28.55-13.98 38.36-9.32 9.82-21.57 14.72-36.73 14.72-14.7 0-26.79-4.84-36.28-14.52-9.49-9.68-14.23-22.12-14.23-37.33 0-16.03 4.54-29.05 13.63-39.04 9.09-9.99 21.38-14.98 36.88-14.98 15.1 0 27.33 4.89 36.68 14.67 9.35 9.8 14.03 22.5 14.03 38.12zm-32.87 0c0-5.46-1.64-10.28-4.91-14.47-3.27-4.18-7.52-6.27-12.73-6.27-5.28 0-9.62 2.14-13.03 6.43-3.21 4.01-4.81 8.78-4.81 14.31 0 5.6 1.6 10.4 4.81 14.41 3.41 4.29 7.75 6.43 13.03 6.43 5.21 0 9.52-2.14 12.93-6.43 3.14-4.01 4.71-8.81 4.71-14.41z"/><path class="st0" d="M920.25 187.62c0 18.75-5.74 33.97-17.21 45.65-11.48 11.68-26.55 17.52-45.22 17.52-18.1 0-32.99-5.76-44.67-17.27-11.68-11.52-17.52-26.32-17.52-44.42 0-19.08 5.59-34.57 16.78-46.45 11.19-11.89 26.32-17.83 45.41-17.83 18.59 0 33.64 5.82 45.16 17.46 11.51 11.64 17.27 26.75 17.27 45.34zm-40.47 0c0-6.5-2.02-12.24-6.05-17.21-4.03-4.98-9.25-7.46-15.67-7.46-6.5 0-11.85 2.55-16.04 7.65-3.95 4.77-5.92 10.45-5.92 17.03 0 6.66 1.97 12.38 5.92 17.15 4.19 5.1 9.54 7.65 16.04 7.65 6.42 0 11.72-2.55 15.92-7.65 3.86-4.78 5.8-10.49 5.8-17.16zM393.12 241.69l-17.01-2.22c-4.1-.54-7-4.3-6.46-8.4l21.53-164.79c.54-4.1 4.3-7 8.4-6.46l17.01 2.22c4.1.54 7 4.3 6.46 8.4l-21.53 164.79c-.54 4.11-4.3 7-8.4 6.46zM44.21 233.46v-23.68a4.96 4.96 0 014.96-4.96h66.05a4.96 4.96 0 014.96 4.96v23.68a4.96 4.96 0 01-4.96 4.96H49.18c-2.74 0-4.97-2.22-4.97-4.96zM.38 183.78V160.1a4.96 4.96 0 014.96-4.96H71.4a4.96 4.96 0 014.96 4.96v23.68a4.96 4.96 0 01-4.96 4.96H5.34c-2.74.01-4.96-2.22-4.96-4.96zM436.95 241.69l-17.01-2.22c-4.1-.54-7-4.3-6.46-8.4l21.53-164.79c.54-4.1 4.3-7 8.4-6.46l17.01 2.22c4.1.54 7 4.3 6.46 8.4l-21.53 164.79c-.53 4.11-4.3 7-8.4 6.46zM497.55 288.24c-4.76 0-8.13-1.76-10.09-5.27-1.96-3.51-1.88-7.59.27-12.23l8.74-19.45c.47-1.04.47-2.22.02-3.26l-28.4-65.16c-1.9-4.64-1.87-8.72.09-12.23 1.96-3.51 5.92-5.27 11.88-5.27 3.21 0 5.8.74 7.77 2.23 1.96 1.49 3.78 4.32 5.45 8.48l14.53 37.03c1.33 3.39 6.12 3.42 7.49.04l15.13-37.26c1.67-4.05 3.54-6.81 5.63-8.3 2.08-1.49 4.91-2.23 8.48-2.23 4.52 0 7.71 1.76 9.55 5.27 1.84 3.51 1.76 7.53-.27 12.05l-41.97 95.19c-1.79 4.05-3.78 6.79-5.98 8.22-2.22 1.44-4.99 2.15-8.32 2.15z"/><path class="st0" d="M290.75 85.7c-5.25-18.31-13.86-33.21-25.84-44.7-12.74-12.25-31.49-21.47-56.26-27.67-9.51-2.36-18.92-2.99-51.59-7.73-6.21-.9-11.78-1.65-16.75-2.26 0 0-92.31-7.35-122.4 27.6 0 0 .31.34.86.91 13.69-3.24 84.43-19.62 102.88-16.98 0 0-42.37 18.99-102.05 17.79 5.25 5.1 22.74 19.93 47.66 19.4 9.45-.44 44.16-6.51 67.54-35.73 0 0-2.92 20.46-29.22 29.22-18.05 6.02-30.15 6.87-35.97 6.81C48.79 76.77 53.43 99.9 53.43 99.9c.25.07.49.1.74.17 31.31-25.99 46.23-52.88 46.23-52.88-.66 30.51-38.98 48.03-46.02 52.93 18.99 4.91 38.97-10.93 51.86-24.34-1.46 12.96-2.77 23.73-3.92 32.28L87.27 238.42H137.73c29.22 0 41.17.22 47.4.19 34.43-.19 46.94-6.48 67.63-24.39 23.38-20 37.33-45.59 41.86-76.78 2.49-17.18 1.2-34.43-3.87-51.74zm-184.58-9.27c15.2-21.73 21.87-45.95 21.87-45.95 9.69 23.84-21.87 45.95-21.87 45.95zm127.5 52.16c-2.74 18.88-8.42 41.26-19.96 51.38-12.27 10.67-17.36 15.58-35.72 12.91-16.97-2.47-25.13-5.98-24.47-10.54.91-6.26 2.15-15.58 3.74-27.97 1.58-12.39 2.82-27.5 3.71-33.66.91-6.26 2.38-15.66 4.42-28.2s3.51-21.94 4.42-28.2c.63-4.35 9.11-5.34 25.45-2.97 17.82 2.59 23.94 5.91 33.05 19.26 9.07 12.93 7.96 30.07 5.36 47.99zM668.6 22.56h107.19c3.48 0 6.09 3.17 5.42 6.58l-5.63 28.78a5.526 5.526 0 01-5.42 4.46H692.3c-2.64 0-4.91 1.87-5.42 4.46l-8.68 44.4c-.67 3.41 1.94 6.58 5.42 6.58h60.34c3.48 0 6.09 3.17 5.42 6.58l-5.63 28.78a5.526 5.526 0 01-5.42 4.46h-64.56c-2.63 0-4.89 1.85-5.41 4.43l-16.51 81.8a5.515 5.515 0 01-5.41 4.43H610.2c-3.48 0-6.1-3.19-5.41-6.61L644.7 42.13c2.29-11.38 12.29-19.57 23.9-19.57zM1012.66 122.88l6.16-31.67a7.264 7.264 0 017.13-5.88h17.78c4.59 0 8.03 4.2 7.12 8.7l-30.74 152.69a7.26 7.26 0 01-7.12 5.83h-13.12c-4.1 0-7.39-3.4-7.26-7.5l.26-7.97h-.56c-10.75 11.23-24.77 18.33-37.06 18.33-20.84 0-33.41-15.5-33.41-43.41 0-45.1 30.55-80.73 63.24-80.73 10.7 0 19.54 5.67 24.17 14.37h.56l2.78-22.27c.01-.17.03-.33.07-.49zm-17.62 87.05l7.67-37.96c.38-1.89.01-3.88-1.06-5.48-3.95-5.93-9.45-8.57-14.31-8.57-16.45 0-31.69 21.64-31.69 49.89 0 14.51 5.39 20.94 13.84 20.94 7.66 0 16.72-3.81 24.59-16.36.46-.75.79-1.6.96-2.46z"/></svg>