<?xml version="1.0" encoding="utf-8"?>
<!-- Generator: Adobe Illustrator 24.1.1, SVG Export Plug-In . SVG Version: 6.00 Build 0)  -->
<svg version="1.1" id="Capa_1" xmlns="http://www.w3.org/2000/svg" xmlns:xlink="http://www.w3.org/1999/xlink" x="0px" y="0px"
	 viewBox="0 0 159 104" style="enable-background:new 0 0 159 104;" xml:space="preserve">
<style type="text/css">
	.st0{fill:#F2594B;}
</style>
<g>
	<path class="st0" d="M156.27,76.38c1.8-0.38,2.7-1.93,2.7-4.65c0-5.21-1.85-9.7-5.56-13.48c-3.7-3.78-8.21-5.67-13.52-5.67
		c-4.9,0-9.04,1.26-12.44,3.74c0.53-6.37-0.13-12.76-2.01-19.17c-2.26-7.89-5.97-14.3-11.13-19.25
		c-5.49-5.27-13.56-9.25-24.23-11.92c-4.1-1.02-8.15-1.29-22.22-3.33c-2.68-0.39-5.07-0.71-7.21-0.97l0,0
		c0,0-38.87-6.99-52.72,11.89c0,0,0.13,0.15,0.37,0.39c5.89-1.39,36.36-8.45,44.31-7.31c0,0-18.25,8.18-43.95,7.66
		c2.26,2.2,9.8,8.59,20.53,8.36c4.07-0.19,19.02-2.8,29.09-15.39c0,0-1.26,8.81-12.59,12.59c-7.77,2.59-12.98,2.96-15.49,2.93
		c-8.97,10.51-6.97,20.47-6.97,20.47c0.11,0.03,0.21,0.04,0.32,0.07c13.48-11.19,19.91-22.78,19.91-22.78
		c-0.29,13.14-16.79,20.69-19.82,22.8c8.18,2.11,16.78-4.71,22.34-10.48c-0.63,5.58-1.19,10.22-1.69,13.9l-4.82,41.67H21.4
		c-1.18,0-2.14,0.96-2.14,2.14v10.2c0,1.18,0.96,2.14,2.14,2.14H37.8h9.15h2.9c3.74,0,7.83,0,9.69,0c12.59,0,17.73,0.1,20.41,0.08
		c14.83-0.08,20.22-2.79,29.13-10.5c4.36-3.73,7.96-7.92,10.8-12.56c0.92,3.67,2.74,6.78,5.5,9.31c4.04,3.75,9.34,5.63,15.92,5.63
		c7.1,0,12.34-1.77,15.71-5.3c0.41-0.43,0.62-0.74,0.62-0.93c0-0.67-0.68-2.25-2.05-4.74c-1.37-2.48-2.34-3.86-2.92-4.13
		c-1.05,0.65-2.1,1.3-3.15,1.94c-2.49,1.3-4.96,1.94-7.42,1.94c-2.05,0-3.87-0.38-5.47-1.13c-1.96-0.92-3.14-2.25-3.52-4.01
		c6.47-0.48,11.33-0.9,14.6-1.25C153.1,76.73,155.96,76.43,156.27,76.38z M45.95,33.15c6.55-9.36,9.42-19.79,9.42-19.79
		C59.53,23.63,45.95,33.15,45.95,33.15z M100.86,55.62c-1.18,8.13-3.63,17.77-8.6,22.13c-5.29,4.6-7.48,6.71-15.38,5.56
		c-7.31-1.06-10.82-2.58-10.54-4.54c0.39-2.7,0.93-6.71,1.61-12.05c0.68-5.34,1.21-11.84,1.6-14.5c0.39-2.7,1.03-6.74,1.9-12.14
		c0.88-5.4,1.51-9.45,1.9-12.14c0.27-1.87,3.93-2.3,10.96-1.28c7.68,1.11,10.31,2.55,14.23,8.3
		C102.46,40.52,101.98,47.9,100.86,55.62z M143.08,69.9c-4.31,0.62-7.49,0.93-9.54,0.93c-0.77,0-1.16-0.36-1.16-1.09
		c0-1.78,0.52-3.33,1.58-4.66c1.13-1.43,2.57-2.15,4.31-2.15c1.69,0,3.14,0.63,4.35,1.9c1.22,1.27,1.82,2.74,1.82,4.41
		C144.45,69.55,144,69.77,143.08,69.9z"/>
	<path class="st0" d="M33.1,79.39v-10.2c0-1.18-0.96-2.14-2.14-2.14H2.52c-1.18,0-2.14,0.96-2.14,2.14v10.2
		c0,1.18,0.96,2.14,2.14,2.14h28.45C32.15,81.52,33.1,80.57,33.1,79.39z"/>
</g>
</svg>
