<?xml version="1.0" encoding="utf-8"?>
<!-- Generator: Adobe Illustrator 24.1.1, SVG Export Plug-In . SVG Version: 6.00 Build 0)  -->
<svg version="1.1" id="Layer_1" xmlns="http://www.w3.org/2000/svg" xmlns:xlink="http://www.w3.org/1999/xlink" x="0px" y="0px"
	 viewBox="0 0 133 133" style="enable-background:new 0 0 133 133;" xml:space="preserve">
<style type="text/css">
	.st0{fill:#365D96;}
	.st1{fill:#FA6541;}
	.st2{fill:#111111;}
	.st3{fill:#F96441;}
	.st4{fill:#375D96;}
	.st5{fill:none;stroke:#111111;stroke-width:5;stroke-miterlimit:10;}
</style>
<path class="st2" d="M82.26,69.45c7.66-5.08,12.72-13.78,12.72-23.64c0-15.64-12.72-28.36-28.36-28.36S38.25,30.17,38.25,45.82
	c0,9.86,5.06,18.55,12.72,23.64C33.65,75.85,21.23,92.48,21.23,112l6.77,4c0-20.85,17.76-41.82,38.62-41.82
	C87.47,74.18,105,94.15,105,115l7-3C112,92.48,99.59,75.85,82.26,69.45z M66.62,66.62c-11.47,0-20.8-9.33-20.8-20.8
	s9.33-20.8,20.8-20.8s20.8,9.33,20.8,20.8S78.09,66.62,66.62,66.62z"/>
<circle class="st5" cx="66.5" cy="66.5" r="64"/>
</svg>
